<?xml version="1.0" encoding="utf-8"?>
<!-- Generator: Adobe Illustrator 26.3.1, SVG Export Plug-In . SVG Version: 6.00 Build 0)  -->
<svg version="1.1" id="Layer_1" xmlns="http://www.w3.org/2000/svg" xmlns:xlink="http://www.w3.org/1999/xlink" x="0px" y="0px"
	 viewBox="0 0 803 248" style="enable-background:new 0 0 803 248;" xml:space="preserve">
<style type="text/css">
	.st0{fill:#00347C;}
	.st1{fill:#004BAB;}
	.st2{fill:#006ADC;}
	.st3{fill:#007DE8;}
	.st4{fill:#0058BB;}
	.st5{fill:#0C1430;}
</style>
<g>
	<g>
		<path class="st0" d="M3.38,1.87l102.71,5.16l101.14,24.94L3.38,1.87z M3.38,1.87"/>
		<path class="st1" d="M10.94,142.16L3.38,1.87l57.14,245.8L10.94,142.16z M10.94,142.16"/>
		<path class="st2" d="M207.23,31.96L177.65,165.7L60.52,247.67l55.46-174.51L207.23,31.96z M207.23,31.96"/>
		<path class="st3" d="M115.98,73.16L60.52,247.67L3.38,1.87L115.98,73.16z M115.98,73.16"/>
		<path class="st4" d="M115.98,73.16L3.38,1.87l203.85,30.09L115.98,73.16z M115.98,73.16"/>
	</g>
	<g>
		<g>
			<path class="st5" d="M361.73,176.93c-8.72,2.13-18.24,3.2-28.52,3.2c-10.67,0-20.5-1.7-29.47-5.08
				c-8.98-3.39-16.7-8.16-23.16-14.31c-6.47-6.15-11.52-13.52-15.16-22.12c-3.64-8.6-5.46-18.17-5.46-28.72
				c0-10.67,1.85-20.33,5.55-29c3.7-8.66,8.82-16.04,15.35-22.13c6.52-6.09,14.18-10.76,22.97-14.03c8.78-3.26,18.27-4.9,28.43-4.9
				c10.55,0,20.34,1.6,29.38,4.8c9.04,3.2,16.38,7.5,22.03,12.9l-20.34,23.16c-3.14-3.64-7.28-6.62-12.43-8.94
				c-5.15-2.32-10.98-3.49-17.51-3.49c-5.65,0-10.86,1.04-15.63,3.11c-4.77,2.07-8.91,4.96-12.43,8.66
				c-3.51,3.7-6.24,8.1-8.19,13.18c-1.95,5.08-2.92,10.64-2.92,16.66c0,6.15,0.88,11.8,2.64,16.95c1.75,5.15,4.36,9.57,7.81,13.27
				c3.45,3.7,7.72,6.59,12.81,8.66c5.08,2.07,10.89,3.11,17.42,3.11c3.77,0,7.34-0.28,10.73-0.85c3.39-0.57,6.52-1.47,9.42-2.73
				v-24.29h-25.42V98.03h54.98v70.61C378.08,172.03,370.46,174.79,361.73,176.93z"/>
			<path class="st5" d="M535.44,109.71c0,11.67-2.16,21.75-6.49,30.22c-4.33,8.47-10.04,15.44-17.14,20.9
				c-7.09,5.46-15.1,9.48-24.01,12.05c-8.91,2.57-17.95,3.86-27.11,3.86h-49.71V43.42h48.2c9.41,0,18.7,1.1,27.87,3.3
				c9.16,2.2,17.32,5.83,24.48,10.92s12.93,11.89,17.32,20.43C533.24,86.61,535.44,97.16,535.44,109.71z M501.92,109.71
				c0-7.53-1.22-13.78-3.67-18.74c-2.45-4.96-5.72-8.91-9.79-11.86c-4.08-2.95-8.73-5.05-13.93-6.31
				c-5.21-1.25-10.58-1.88-16.1-1.88h-16.01v77.95h15.25c5.77,0,11.32-0.66,16.66-1.98c5.34-1.32,10.04-3.48,14.12-6.49
				c4.08-3.01,7.34-7.03,9.79-12.05C500.7,123.33,501.92,117.12,501.92,109.71z"/>
			<path class="st5" d="M642.58,176.74l-10.36-26.17h-51.59l-9.79,26.17h-35.02l55.92-133.31H623l55.36,133.31H642.58z M606.8,79.01
				l-16.95,45.76h33.52L606.8,79.01z"/>
			<path class="st5" d="M781.54,174.39c-8.66,3.95-18.64,5.93-29.94,5.93c-10.29,0-19.81-1.69-28.53-5.08
				c-8.73-3.39-16.29-8.19-22.69-14.4c-6.4-6.21-11.42-13.65-15.06-22.31c-3.64-8.66-5.46-18.2-5.46-28.62
				c0-10.67,1.85-20.33,5.55-29c3.7-8.66,8.82-16.04,15.35-22.13c6.52-6.09,14.18-10.76,22.97-14.03c8.78-3.26,18.27-4.9,28.43-4.9
				c9.42,0,18.67,1.67,27.77,4.99c9.1,3.33,16.48,8.19,22.12,14.59l-21.84,21.84c-3.01-4.14-6.97-7.22-11.86-9.23
				c-4.9-2-9.92-3.01-15.06-3.01c-5.65,0-10.83,1.03-15.53,3.11c-4.71,2.07-8.75,4.93-12.14,8.57c-3.39,3.64-6.03,7.94-7.91,12.9
				c-1.88,4.96-2.82,10.39-2.82,16.29c0,6.03,0.94,11.55,2.82,16.57c1.88,5.02,4.49,9.32,7.82,12.9c3.33,3.58,7.31,6.37,11.96,8.38
				c4.64,2.01,9.73,3.01,15.25,3.01c6.4,0,11.98-1.25,16.76-3.77c4.77-2.51,8.6-5.77,11.48-9.79l22.41,21.09
				C797.48,165.07,790.2,170.43,781.54,174.39z"/>
		</g>
	</g>
</g>
</svg>
