<svg id="guideline" xmlns="http://www.w3.org/2000/svg" viewBox="0 0 240 88"><defs><style>.cls-1{fill:#1b1b1b;}</style></defs><circle class="cls-1" cx="93.5" cy="39.43" r="29.72"/><path class="cls-1" d="M192.76,43.79h0a38.24,38.24,0,0,1-1,8.55h38V35.91H191.93A38.58,38.58,0,0,1,192.76,43.79Z"/><path class="cls-1" d="M178.79,73.3V77h51V60.57H188.86A38.25,38.25,0,0,1,178.79,73.3Z"/><path class="cls-1" d="M184.38,44.12A33.42,33.42,0,0,0,151,10.7H124.18v7.58a37.22,37.22,0,0,1,0,42.29h0a37.25,37.25,0,0,1-60.76.84l-3.69-4.8-3.28,2.78A19,19,0,0,1,43.8,64.25c-10.72,0-19.42-9-19.42-20.12S33.08,24,43.8,24a18.83,18.83,0,0,1,10.39,3.13l8.58-14.06a36.79,36.79,0,1,0-19.7,67.85,36.52,36.52,0,0,0,19.66-5.7,47.18,47.18,0,0,0,61.45.07v2.26H151a33.43,33.43,0,0,0,33.42-33.43Zm-34.8,17h-8.1v-34h8.1a17,17,0,1,1,0,34Z"/><path class="cls-1" d="M178.79,11v3.28a38.34,38.34,0,0,1,10.38,13.4h40.6V11Z"/></svg>