<svg width="960" height="480" viewBox="0 0 960 480" fill="none" xmlns="http://www.w3.org/2000/svg">
<path fill-rule="evenodd" clip-rule="evenodd" d="M960 0H0V480H960V0ZM490.143 218.115C490.143 269.781 448.229 311.665 396.525 311.665C344.821 311.665 302.907 269.781 302.907 218.115C302.907 166.448 344.821 124.564 396.525 124.564C448.229 124.564 490.143 166.448 490.143 218.115Z" fill="black"/>
<path d="M709.194 231.839C709.161 240.9 708.104 249.928 706.044 258.752H825.744V207.035H706.579C708.301 215.191 709.177 223.503 709.194 231.839Z" fill="white"/>
<path d="M665.188 324.728V336.375H825.838V284.658H696.909C689.326 300.128 678.509 313.793 665.188 324.728Z" fill="white"/>
<path d="M682.797 232.878C682.797 204.999 671.723 178.261 652.008 158.537C632.292 138.812 605.548 127.714 577.65 127.681H493.167V151.54C506.684 171.108 513.924 194.322 513.924 218.099C513.924 241.876 506.684 265.09 493.167 284.658C482.536 300.082 468.361 312.738 451.831 321.565C435.3 330.391 416.894 335.133 398.153 335.392C379.413 335.65 360.882 331.419 344.114 323.053C327.345 314.686 312.827 302.427 301.773 287.302L290.149 272.193L279.817 280.943C268.868 290.764 254.682 296.21 239.97 296.241C206.202 296.241 178.797 267.912 178.797 232.909C178.797 197.906 206.202 169.545 239.97 169.545C251.61 169.549 262.993 172.976 272.698 179.398L299.725 135.141C284.542 125.509 267.325 119.541 249.435 117.708C231.544 115.875 213.473 118.228 196.65 124.581C179.827 130.933 164.715 141.111 152.509 154.308C140.302 167.506 131.337 183.361 126.323 200.619C121.308 217.877 120.382 236.065 123.617 253.742C126.853 271.42 134.161 288.103 144.963 302.47C155.766 316.838 169.766 328.496 185.857 336.522C201.947 344.549 219.686 348.723 237.67 348.714C259.603 348.755 281.09 342.53 299.599 330.772C326.518 353.909 360.836 366.65 396.342 366.691C431.848 366.731 466.195 354.068 493.167 330.992V338.106H577.65C605.573 338.098 632.349 327.008 652.091 307.274C671.832 287.541 682.923 260.781 682.923 232.878H682.797ZM573.177 286.389H547.662V179.366H573.177C587.379 179.366 601 185.004 611.042 195.039C621.085 205.075 626.727 218.686 626.727 232.878C626.727 247.07 621.085 260.681 611.042 270.716C601 280.751 587.379 286.389 573.177 286.389Z" fill="white"/>
<path d="M665.188 128.625V138.95C679.1 150.396 690.272 164.808 697.885 181.129H825.776V128.625H665.188Z" fill="white"/>
</svg>
